<?xml version="1.0" encoding="UTF-8"?><svg id="Layer_1" xmlns="http://www.w3.org/2000/svg" viewBox="0 0 36 37"><defs><style>.cls-1{fill:#020785;}.cls-2{fill:#0071ed;}</style></defs><path class="cls-2" d="M3.69,25.25L17.53,4.49s.45-.99,1.09,0,13.49,20.52,13.49,20.52c0,0,.49,.99,.99,0,.49-.99,5.36-13.24-7.7-20.95C11.35-1.94,3.94,10.42,3.94,10.42c0,0-4.2,5.69-1.24,14.58,.74,.74,.99,.25,.99,.25Z"/><path class="cls-2" d="M14.07,9.44c.45-1.61,1.82-2.79,3.47-2.97,1.58-.18,3.14,.6,3.96,1.98v-3.47l-2.48-1.49h-2.48l-.99,1.49c-.33,.5-.66,.99-.99,1.49-.17,.99-.33,1.98-.5,2.97Z"/><g><path class="cls-1" d="M7.86,32.73c-.22-.36-.46-.55-.65-.65-.23-.13-.42-.15-.51-.32-.09-.18-.01-.4,.07-.57,0,0,.16-.61,.44-1.06,.23-.36,4.25-5.52,11.04-5.2,0,0,6.63,.36,10.46,6.25,.02,.03,.27,.55,.15,.64-.15,.11-.73-.51-.87-.4-.07,.05-.03,.26,.25,.81-.86,.51-2.06,1.1-3.53,1.67-2.08,.8-4.79,1.54-7.29,1.28-1.25-.13-3.76-.03-6.75-1.14-1.19-.44-2.14-.94-2.81-1.33Z"/><path class="cls-1" d="M6.77,31.19s3.83-4.45,11.78-4.2c6.57,.25,10.17,4.2,10.17,4.2,0,0,.51,.49-.04,.74-.55,.49-5.48,3.71-12.32,3.21-6.85-.49-9.58-3.24-9.58-3.24,0,0-.27-.22,0-.72Z"/></g></svg>